# xmcd
#
# Track frame offsets:
#	150
#	19742
#	39407
#	52367
# Disc length: 1040 seconds
# Revision: 2
# Processed by: cddbd v1.5.1PL2 Copyright (c) Steve Scherf et al.
#
# Submitted via: libkcddb 0.21
#
DISCID=30040e04
DTITLE=The Mutton Birds - Anchor Me
DYEAR=1994
DGENRE=Indie
TTITLE0=Anchor Me (Remix Edit)
TTITLE1=When The Wind Comes Round
TTITLE2=Esther
TTITLE3=Don't Fight It Marsha, It's Bigger Than Both Of Us
EXTD=CD Single
EXTT0=
EXTT1=
EXTT2=
EXTT3=
PLAYORDER=
